# MagicaVoxel @ Ephtracy

# group
o 

# material
mtllib MouseFull-0.mtl
usemtl palette

# normals
vn -1 0 0
vn 1 0 0
vn 0 0 1
vn 0 0 -1
vn 0 -1 0
vn 0 1 0

# texcoords
vt 0.970703 0.5
vt 0.974609 0.5

# verts
v -5.6 0.6 8.6
v -5.6 0.6 7.7
v -5.6 0.9 8.6
v -5.6 0.9 8.5
v -5.6 1 8.6
v -5.6 1 8.5
v -5.6 1 8.1
v -5.6 1.5 8.1
v -5.6 1.5 7.7
v -5.3 0.7 8.5
v -5.3 0.7 7.8
v -5.3 0.9 8.5
v -5.3 0.9 8
v -5.3 1.4 8
v -5.3 1.4 7.8
v -5.5 0.7 8.5
v -5.5 0.7 7.8
v -5.5 0.9 8.5
v -5.5 0.9 8
v -5.5 1.4 8
v -5.5 1.4 7.8
v -5.2 0.6 8.6
v -5.2 0.6 7.7
v -5.2 0.9 8.6
v -5.2 0.9 8.5
v -5.2 1 8.6
v -5.2 1 8.5
v -5.2 1 8.1
v -5.2 1.5 8.1
v -5.2 1.5 7.7
v -5.6 0.6 8.6
v -5.6 0.9 8.6
v -5.6 1 8.6
v -5.2 0.6 8.6
v -5.2 0.9 8.6
v -5.2 1 8.6
v -5.6 1 8.1
v -5.6 1.5 8.1
v -5.2 1 8.1
v -5.2 1.5 8.1
v -5.5 0.7 7.8
v -5.5 1.4 7.8
v -5.3 0.7 7.8
v -5.3 1.4 7.8
v -5.5 0.7 8.5
v -5.5 0.9 8.5
v -5.3 0.7 8.5
v -5.3 0.9 8.5
v -5.5 0.9 8
v -5.5 1.4 8
v -5.3 0.9 8
v -5.3 1.4 8
v -5.6 0.6 7.7
v -5.6 1.5 7.7
v -5.2 0.6 7.7
v -5.2 1.5 7.7
v -5.6 0.6 8.6
v -5.2 0.6 8.6
v -5.6 0.6 7.7
v -5.2 0.6 7.7
v -5.5 0.9 8.5
v -5.3 0.9 8.5
v -5.5 0.9 8
v -5.3 0.9 8
v -5.5 1.4 8
v -5.3 1.4 8
v -5.5 1.4 7.8
v -5.3 1.4 7.8
v -5.5 0.7 8.5
v -5.3 0.7 8.5
v -5.5 0.7 7.8
v -5.3 0.7 7.8
v -5.6 1 8.6
v -5.2 1 8.6
v -5.6 1 8.5
v -5.2 1 8.5
v -5.6 1 8.1
v -5.2 1 8.1
v -5.6 1.5 8.1
v -5.2 1.5 8.1
v -5.6 1.5 7.7
v -5.2 1.5 7.7

# faces
f 3/1/1 2/1/1 1/1/1
f 4/1/1 2/1/1 3/1/1
f 5/2/1 4/2/1 3/2/1
f 6/1/1 2/1/1 4/1/1
f 6/2/1 4/2/1 5/2/1
f 7/1/1 2/1/1 6/1/1
f 8/1/1 2/1/1 7/1/1
f 9/1/1 2/1/1 8/1/1
f 12/1/1 11/1/1 10/1/1
f 13/1/1 11/1/1 12/1/1
f 14/1/1 11/1/1 13/1/1
f 15/1/1 11/1/1 14/1/1
f 16/1/2 17/1/2 18/1/2
f 18/1/2 17/1/2 19/1/2
f 19/1/2 17/1/2 20/1/2
f 20/1/2 17/1/2 21/1/2
f 22/1/2 23/1/2 24/1/2
f 24/1/2 23/1/2 25/1/2
f 24/2/2 25/2/2 26/2/2
f 25/1/2 23/1/2 27/1/2
f 26/2/2 25/2/2 27/2/2
f 27/1/2 23/1/2 28/1/2
f 28/1/2 23/1/2 29/1/2
f 29/1/2 23/1/2 30/1/2
f 34/1/3 32/1/3 31/1/3
f 35/2/3 33/2/3 32/2/3
f 35/1/3 32/1/3 34/1/3
f 36/2/3 33/2/3 35/2/3
f 39/1/3 38/1/3 37/1/3
f 40/1/3 38/1/3 39/1/3
f 43/1/3 42/1/3 41/1/3
f 44/1/3 42/1/3 43/1/3
f 45/1/4 46/1/4 47/1/4
f 47/1/4 46/1/4 48/1/4
f 49/1/4 50/1/4 51/1/4
f 51/1/4 50/1/4 52/1/4
f 53/1/4 54/1/4 55/1/4
f 55/1/4 54/1/4 56/1/4
f 59/1/5 58/1/5 57/1/5
f 60/1/5 58/1/5 59/1/5
f 63/1/5 62/1/5 61/1/5
f 64/1/5 62/1/5 63/1/5
f 67/1/5 66/1/5 65/1/5
f 68/1/5 66/1/5 67/1/5
f 69/1/6 70/1/6 71/1/6
f 71/1/6 70/1/6 72/1/6
f 73/2/6 74/2/6 75/2/6
f 75/2/6 74/2/6 76/2/6
f 75/1/6 76/1/6 77/1/6
f 77/1/6 76/1/6 78/1/6
f 79/1/6 80/1/6 81/1/6
f 81/1/6 80/1/6 82/1/6
